<?xml version="1.0" encoding="iso-8859-1"?>
<!-- Generator: Adobe Illustrator 19.0.0, SVG Export Plug-In . SVG Version: 6.00 Build 0)  -->
<svg version="1.1" id="Layer_1" xmlns="http://www.w3.org/2000/svg" xmlns:xlink="http://www.w3.org/1999/xlink" x="0px" y="0px"
  viewBox="0 0 511.998 511.998" style="enable-background:new 0 0 511.998 511.998;" xml:space="preserve">
<g>
	<g>
		<path fill='#ffffff' d="M510.603,263.008c-2.272-4.591-6.95-7.498-12.073-7.498c-95.608,0-124.682-46.562-152.798-91.591
			c-23.608-37.81-48.022-76.908-109.062-76.908c-28.416,0-53.331,12.541-72.049,36.263c-14.848,18.819-25.227,43.822-30.188,72.606
			l-22.361,14.487c-6.213,4.023-9.708,10.402-9.351,17.062c0.358,6.66,4.517,12.628,11.124,15.963l18.854,9.517
			c0.22,2.004,0.467,3.988,0.742,5.942c11.362,80.753,53.299,138.299,115.076,157.955v24.583c0,7.437,6.031,13.469,13.469,13.469
			c7.437,0,13.469-6.031,13.469-13.469v-18.652c6.915,0.874,13.341,1.211,19.1,1.211c5.926,0,11.136-0.353,15.47-0.82v18.262
			c0,7.438,6.031,13.469,13.469,13.469c7.437,0,13.469-6.031,13.469-13.469v-24.005c84.649-26.551,168.546-135.355,172.271-140.233
			C512.343,273.082,512.873,267.599,510.603,263.008z M317.308,394.673c-0.203,0.038-0.485,0.1-0.687,0.148
			c-2.812,0.671-28.372,6.282-59.657-3.587c-51.67-16.303-86.971-65.922-96.85-136.132c-0.536-3.828-0.958-7.807-1.249-11.823
			c-0.342-4.722-3.137-8.918-7.363-11.051l-13.28-6.705l15.903-10.302c3.268-2.116,5.459-5.542,6.01-9.397
			c6.355-44.416,29.797-91.876,76.535-91.876c46.102,0,63.803,28.348,86.214,64.237c26.447,42.357,58.787,94.158,148.102,102.959
			C441.021,315.691,376.088,383.183,317.308,394.673z"/>
	</g>
</g>
<g>
	<g>
		<path fill='#ffffff' d="M388.404,267.708c-3.276-4.062-8.598-5.868-13.665-4.633c-34.969,8.496-48.182-3.526-63.488-17.452
			c-13.216-12.025-29.66-26.986-58.401-20.003c-25.359,6.163-40.014,30.499-37.334,61.994c0.032,0.392,0.085,0.783,0.151,1.17
			c0.442,2.539,2.791,15.56,5.588,22.605c12.705,31.999,38.316,51.921,68.51,53.288c1.131,0.051,2.242,0.077,3.338,0.077
			c15.919,0,27.684-5.136,30.511-6.491c36.514-16.347,63.462-70.127,66.42-76.217C392.313,277.356,391.679,271.769,388.404,267.708z
			M312.566,333.7c-0.186,0.081-0.401,0.182-0.583,0.269c-0.364,0.178-9.035,4.361-20.995,3.801
			c-19.593-0.888-35.884-14.125-44.696-36.32c-1.265-3.185-3.041-11.448-3.98-16.689c-0.543-7.371-0.541-28.725,16.901-32.966
			c14.235-3.456,20.681,1.716,33.91,13.753c12.922,11.756,29.575,26.912,59.652,27.241
			C342.251,308.815,327.478,327.089,312.566,333.7z"/>
	</g>
</g>
<g>
	<g>
		<path fill='#ffffff' d="M235.942,187.24c-0.175-0.863-0.43-1.712-0.766-2.519c-0.337-0.822-0.756-1.603-1.239-2.33
			c-0.498-0.741-1.051-1.428-1.67-2.047c-0.633-0.62-1.32-1.185-2.049-1.67c-0.741-0.485-1.522-0.902-2.329-1.239
			s-1.657-0.593-2.519-0.768c-1.737-0.35-3.529-0.35-5.266,0c-0.862,0.175-1.711,0.431-2.519,0.768
			c-0.82,0.337-1.601,0.754-2.329,1.239c-0.741,0.485-1.429,1.051-2.049,1.67s-1.185,1.307-1.669,2.047
			c-0.485,0.727-0.904,1.508-1.241,2.33c-0.337,0.808-0.591,1.655-0.766,2.519c-0.175,0.862-0.269,1.751-0.269,2.625
			c0,3.557,1.441,7.017,3.946,9.522c0.62,0.62,1.308,1.185,2.049,1.684c0.725,0.485,1.506,0.889,2.326,1.226
			c0.809,0.337,1.657,0.606,2.519,0.768c0.863,0.175,1.751,0.268,2.64,0.268c0.875,0,1.751-0.093,2.626-0.268
			c0.862-0.162,1.712-0.431,2.519-0.768s1.589-0.741,2.329-1.226c0.727-0.498,1.416-1.064,2.049-1.684
			c2.505-2.505,3.933-5.967,3.933-9.522C236.197,188.991,236.117,188.101,235.942,187.24z"/>
	</g>
</g>
</svg>
