<?xml version="1.0" encoding="UTF-8"?>
<!DOCTYPE svg PUBLIC "-//W3C//DTD SVG 1.1//EN" "http://www.w3.org/Graphics/SVG/1.1/DTD/svg11.dtd">
<!-- Creator: CorelDRAW 2020 (64-Bit) -->
<svg xmlns="http://www.w3.org/2000/svg" xml:space="preserve" width="430.834mm" height="494.279mm" version="1.1" style="shape-rendering:geometricPrecision; text-rendering:geometricPrecision; image-rendering:optimizeQuality; fill-rule:evenodd; clip-rule:evenodd"
viewBox="0 0 34788.88 39911.98"
 xmlns:xlink="http://www.w3.org/1999/xlink"
 xmlns:xodm="http://www.corel.com/coreldraw/odm/2003">
 <defs>
  <style type="text/css">
   <![CDATA[
    .fil0 {fill:black}
   ]]>
  </style>
 </defs>
 <g id="Слой_x0020_1">
  <metadata id="CorelCorpID_0Corel-Layer"/>
  <path class="fil0" d="M11624.44 24212.82c92.5,61.94 149.53,142.42 234.65,221.12 59.26,54.79 71.13,52.16 127.82,100.06 68.09,57.53 68.21,76.57 117.57,138.81 71.76,90.48 144.82,138.22 220.09,235.69 87.66,113.53 139.82,152.48 232.58,251.67l81.2 89.73c133.44,134.22 336.25,199.8 353.95,415.17 26.36,320.68 -57.68,665.06 227.35,741.18 0,-217.37 -49.53,-324.38 1.8,-515.05 30.6,-113.64 59.29,-96.95 177.22,21.66 45.73,45.99 59.92,70.11 71.43,129 71.11,364.04 8.59,540.86 311.15,856.78 110.5,115.39 325.42,260.46 520.88,276.73 -15,-180.25 -195.3,-181.99 -370.32,-512.75 189.62,-44.18 101.31,30.89 277.13,207.13 98.93,99.17 164.46,187.54 349.57,191.66 -95.15,-142.08 -180.04,-164.9 -227.89,-370.32 123.07,32.86 151.8,130.45 265.14,190.63 296.86,157.62 528.97,374.92 835.87,531.47 201.57,102.82 436.22,145.51 600.68,310.87 147.14,147.95 131.9,71.35 318.66,137.12 178.15,62.74 145.1,116.65 220.77,263.49 100.62,195.25 650.52,192.25 1010.24,357.1 294.48,134.95 217.8,168.89 616.7,294.85 104.04,32.85 206.08,86.23 302.97,152.8 163.19,112.13 387.17,307.56 586.13,353.91 -3.11,139.57 -37.94,137.73 -23.21,310.31 17.48,204.77 -0.69,56.88 -54.46,237.96 -70.99,239.04 -70.47,288.44 -311.13,401.78 -716.78,337.55 -948.67,769.23 -1869.33,922.37 -550.29,91.54 -613.51,-220.23 -1103.23,-220.23 -55.4,82.73 -57.64,38.23 -85.46,142.43 86.16,7.17 116.75,24.54 173.31,54.57 131.59,69.86 87.05,97.54 177.33,136.03l135.22 35.7c83.56,26.68 116.14,23.08 140.83,115.53 -400.07,93.21 -339.88,20.75 -653.55,29.84 -110.62,3.21 -180.31,39.49 -341.98,26.4 -294.14,-23.84 -612.42,-135.41 -888.11,-223.59 -198,-63.33 -409.85,-110.72 -598.22,-170.91 -489.91,-156.55 -884.43,-319.09 -1229.03,-651.05 -198.82,-191.53 -386.59,-366.97 -618.54,-520.9l-465.2 -275.43c-163.68,-98.08 -308.93,-173.45 -469.76,-270.88 -392.7,-237.89 -917.49,-453.65 -1430.65,-451.45 -254.87,1.1 -407.7,106.08 -627.72,3.08 -979.16,-458.41 -1044.24,-115.82 -1564.89,-115.82 60.91,228.11 429.93,297.09 622.65,374.36 245.4,98.42 442.63,198.16 664.68,332.33 417.29,252.16 925.96,427.36 1414.6,607.92 643.62,237.82 817.73,373.05 1565.86,456.65 250.79,28.03 666.09,43.2 885.6,111.41 172.67,53.66 223.78,132.53 332.13,180.62 75.73,33.62 101.64,12.69 194.51,61.87 74.34,39.37 91.08,65.42 131.13,125.24 -736.95,0 -1076.08,-94.35 -1848.74,59.83 -700.41,139.76 -816.36,68.3 -1555.93,438.1l-851.56 487.29c-392.15,255.2 -748.44,558.39 -1077.79,887.75 -331.17,331.18 -667.81,669.22 -957.72,1036.3 -157.67,199.62 -539.52,503.37 -601.89,736.95 368.27,-8.2 1209.55,-433.97 1607.13,-586.29 193.66,-74.19 355.44,-119.01 539.15,-201.48 525.6,-235.93 919.77,-509.2 1321.56,-900.35 711.99,-693.16 1356.79,-884.87 1738.48,-1224.07l958.06 -523.21c587.58,-236.78 1260.59,52.97 1840.19,188l-189.6 66.78c-98.53,38.81 -114.57,50.77 -123.75,161.11 303.6,0 381.94,-75.14 663.55,-37.01 255.59,34.6 456.14,30.99 646.81,122.48 -38.33,105.89 -679.68,430.18 -822.26,459.61 -348.1,71.82 -786.07,66.71 -1149.4,160.95 -440.6,114.29 -824.05,241.66 -1215.21,408.5l-409.2 245.98c-69.05,57.23 -122.58,93.03 -186.02,155.81 -108.49,107.39 -213.72,230.95 -328.3,326.88 -1014.53,849.44 -527.16,426.15 -1150.33,1470.39 -86.12,144.31 -164.99,257.78 -253.55,401.62 -138.7,225.3 -356.39,616.23 -382.34,928.02 97.46,-35.28 19.15,2.87 95.13,-75.79l638.6 -643.26c75,-66.04 109.41,-80.13 185.36,-156.47l554.63 -556.32c156.2,-157.56 224.92,-188.11 463.67,-248.49 118.95,-30.08 166.62,-69.19 272.75,-97.57 402.32,-107.54 111.66,75.04 850.1,-232.38 188.01,-78.27 330.29,-144.44 489.49,-251.13l873.93 -578.87c562.61,-425.82 623.78,-896.58 1005.09,-1159.85 221.33,-152.82 460.9,-249.69 689.61,-392.85 287.1,-179.7 460.63,-10.44 946.17,-50.85 23.9,287.25 104.42,170.13 7.65,577.38 -75.98,319.79 -611.97,394.02 -881.21,514.61 -188.98,84.64 -300.15,141.1 -474.36,237.79 -641.97,356.28 -1020.69,769.67 -1452.05,1339.58 -363.04,479.67 -642.06,1291.21 -857.32,1934.31 -189.73,566.83 -25.22,1234.9 76.8,1825.43 33.64,194.74 1.69,464.19 48.22,663.93 123.6,-82.77 159.09,-217.85 192.83,-376.9 207.93,-980.17 122.16,-1299.31 882.77,-2051.29l285.14 -313.06c892.87,-896.87 1075.19,-2277.56 1617.9,-3082.3 81.18,-120.38 170.11,-239.88 354.22,-243.98 36.01,154.54 -13.4,240.46 -46.29,410.24 -24.32,125.51 8.79,327.38 25.87,464.76 113.17,909.57 191.15,854.93 500.64,1607.33 340.45,827.65 714.62,1246.4 1216.92,1945.03 186.18,258.94 343.69,522.79 560.4,749.97 60.57,63.5 62.32,77.72 115.19,141.17 79.19,95.02 178.53,202.52 304.96,236.28 -10.01,-449.47 -461.81,-1238.61 -592.55,-1771.8 -398.93,-1626.96 -909.32,-1771.78 -1732.11,-2996.58 -163.8,-243.83 -307.4,-579.99 -61.75,-865.44 157.76,-183.32 101.9,-195.57 163.73,-434.47 45.23,-174.75 86.21,-283.82 86.21,-511.99 166.91,-88.31 289.67,-110.16 480.75,-174.44 538.55,-181.2 915.27,-338.76 1411.77,-639.22 371.34,-224.71 936.52,-487.5 1219.66,-802.85 131.28,-146.23 163.72,-248.08 163.72,-519.94 175.42,46.83 332.73,259.64 521.26,304.83 159.43,38.22 95.2,-4.55 162.41,122.45 -111.95,2.5 -66.82,-7.79 -142.43,28.49 0,195.95 42.75,203.44 148.53,307.25 69.32,68.03 45.53,48.94 129.95,97.94 152.24,88.36 25.67,-15.28 108.91,118.98l216.77 239.01c122.29,126.5 153.24,82.78 320.37,135.41 194.55,61.26 26.04,131.71 194.32,261.45 78.49,60.51 174.96,108.2 237.68,218.37 50.68,89.01 -7.15,164.73 90.92,307.44 215.02,312.88 143.06,157.25 159.87,495.85 9.95,200.41 -111.25,281.6 279.46,745.67 85.02,100.98 131.95,175.76 162.45,321.81 110.33,528.36 414.27,787.65 531.34,1320.26 182.96,832.43 70.97,595.54 385.6,1465.99 37.37,103.39 80.89,230.29 110.58,345.19 39.21,151.73 49.74,212.57 114.17,341.6 62.41,124.97 72.36,195.61 85.1,370.68 14.85,203.99 356.98,1096.64 386.68,1237.02 18.65,88.13 4.42,113.56 31.69,196.2l147.15 337.11c96.11,241.11 268.14,759.02 552.37,816.76 209.54,42.55 262.36,-29.02 334.77,-137.16 -21.23,-255.05 -236.14,-269.59 -256.37,-512.75 70.66,18.86 171.03,96.54 217.22,153.09 74.65,91.41 74.52,152.22 125.52,244.8 41.67,75.66 110.5,131.18 175.87,194.45 72.4,70.08 124.27,108.77 274.37,89.91l309.06 -64.49c926.73,-129.12 490.16,-275.94 835.01,-275.94 -2.79,-125.18 -19.28,-88.73 -28.49,-199.4 140.02,93.76 251.34,247.36 386.27,354.37 243.9,193.42 118.87,123.28 309.56,93.95 99.63,-15.33 244.06,126.33 347.02,-146.11 59.76,-158.14 42.71,-405.77 15.81,-563.27 -58.78,-344.22 -175.54,-606.46 -306,-918.89 -68.04,-162.92 -122.87,-289.41 -179.61,-447.09 -107.31,-298.21 -267.04,-566.32 -346.11,-878.79 -46.13,-182.31 -52.37,-328.8 -120.56,-506.14 -62.19,-161.75 -155.67,-274.53 -163.08,-463.61 -12.36,-315.92 -143.65,-408.11 -218.02,-693.54l-488.19 -1078.54c-84.99,-134.74 -194.45,-222.32 -234.11,-392.57 218.71,50.95 487.19,80.79 690.14,135.96 758.04,206.04 1424.96,820.7 2355.85,948.52 280.6,38.53 446.34,39.5 700.91,125.2 366.24,123.29 917.73,387.49 1352.11,157.65 -13.15,-158.02 -83.14,-188.99 -187.32,-268.46 -96.49,-73.6 -177.29,-150.68 -239.97,-244.29 89.02,20.74 90.45,38.61 170.92,0 -5.83,-261.6 -262.64,-266.48 -370.32,-427.29 239.25,0 167.48,-2.92 256.37,-170.91 32.36,15.52 483.4,112.65 541.23,113.94 -18.69,-224.69 -593.36,-475.94 -765.12,-545.24 -376.46,-151.9 -507.03,-275.12 -942.32,-368.03 -72.27,-15.42 -170.56,-42.8 -237.97,-75.38 -91.92,-44.42 -121.34,-80.84 -222.94,-118.89 -165.82,-62.08 -317.73,-102.65 -491.87,-163.31l-919.64 -390.72c-484.27,-225.67 -484.5,-254.15 -859.39,-450.96 -138.45,-72.69 -306.91,-128.95 -438.05,-217.13 -135.87,-91.36 -246.47,-189.9 -392.29,-262.9 -284.78,-142.58 -658.56,-217.13 -863.01,-447.34 -140.26,-157.93 -101.72,-281.25 -167.31,-487.88 -76.54,-241.11 -259.1,-147.8 -280.36,-403.3 35.56,-14.36 132.58,16.3 -0.21,-227.04 -29.06,-53.26 -106.75,-169.2 -149.95,-221.01 -112.93,-135.46 -280.25,-183.79 -349.29,-362.86 -115.87,-300.55 -302.36,-231.79 -705.11,-719.18 -124.95,-151.21 -620.09,-528.38 -776.93,-647.38 -198.79,-150.83 -424,-300.4 -654.67,-399.31 -119.2,-51.11 -181.21,-41.08 -290.39,-79.92 -108.9,-38.74 -83.4,-92.35 -198.24,-143.59 -246.98,-110.18 -556.41,-160.95 -783.34,-299.13 -616.62,-375.49 -931.52,-446.54 -1401.49,-734.97 -183.4,-112.56 -837.01,-187.47 -1045.18,-379.11 -36.97,-34.04 -26.71,-44.06 -76.15,-94.77 -63.27,-64.89 -291.9,-193.89 -377.2,-192.53 -218.05,3.5 -45.48,300.2 -621.92,-175.69 -157.14,-129.73 -182.64,-115.2 -338.54,-73.04 -196.77,53.24 -668.26,-223.21 -798.29,-385.35 -56.06,-69.91 -39.71,-87.54 -105.09,-151.28 -150.59,-146.8 -503.92,-238.97 -557.48,-439.53 -2.1,-131.01 444.36,-774.71 541.03,-911.76 200.17,-283.78 447.63,-556.88 625.55,-855.73 115.32,-193.71 275.43,-418.23 457.12,-539.89 116.08,30.99 109.55,93.76 236.56,162.24 89.35,48.17 334.17,199.41 421.44,202.55 77.54,2.79 53.94,-22.25 111.02,-27.45 4.26,-0.39 12.52,-1.1 16.88,-0.97 79.47,2.29 200,80.51 325.06,90.91 -69.7,-104.08 -77.94,-54.4 -142.43,-142.42 123.87,-59.44 195.93,-4.81 256.37,85.46 60.82,-40.73 1.12,-9.59 46.58,-38.78 79.73,-51.19 143.56,-14.2 262.28,-22.98 145.02,-10.73 203.68,-6.69 346.33,61.76 99.72,-207.82 -36.9,-71.2 170.91,-170.92 -51.09,-69.73 -38.78,-61.3 -142.43,-85.46l0 -56.98c283.68,-66.08 393.61,116.13 660.01,86.46 86.88,-9.67 102.43,23.38 86.02,-44.33 -2.49,-10.25 -136.33,-96.36 -176.3,-156.08 205.01,47.76 313.15,159.54 484.26,199.41 -14.16,-170.19 -45.27,-48.88 -85.46,-199.41 169.46,0 214.44,53.5 370.32,56.98 -36.85,-137.99 -48.61,-32.93 -85.46,-170.92 117.04,27.27 172.68,76.12 284.85,85.46 -65.49,-56.92 -131.89,-116.79 -227.89,-142.42l0 -56.98c64.94,-15.13 65.52,-22.08 142.43,-28.49 -13.2,-158.65 -70.34,-74.72 -85.46,-256.37 295.39,0 482.49,158.72 762.03,107.33 235.55,-43.31 59.21,-77.84 302.63,23.63 83.93,35 280.45,68.44 388.11,68.44 -82.69,-123.49 -146.43,-130.92 -227.89,-284.86 95.44,-50.5 80.38,-21.28 142.43,-113.94 79.33,18.48 90.48,40.89 150.78,50.48 136.16,21.66 113.6,-27.12 372.87,23.69 79.71,15.62 133.86,11.28 216.99,11.28 -29.53,-110.6 -102.25,-172.87 -113.94,-313.34 290.22,0 376.79,37.03 590.36,121.78 628.12,249.25 736.18,473.57 1155.06,1038.37 310.82,419.09 661.53,807.07 960.58,1232.85 347.13,494.27 735.98,950.32 1098.53,1436.73 113.63,152.44 227.91,251.25 362.01,378.63 67.96,64.54 121.11,114.61 179.82,190.51 65.87,85.17 98.73,109.13 158.87,182.95 56.97,69.94 102.48,136.52 158.67,211.65 435.17,581.78 394.12,620.62 997.71,1224.21 142.06,142.06 379.93,466.55 524.68,557.78 374.98,236.33 601.77,605.64 865.59,957.52 223.82,298.51 508.83,437.57 760.55,692.24l712.02 769.25c334.85,334.85 502.69,360.34 839.45,613.34 130.9,98.33 285.05,205.49 430.85,281.3 211.38,109.92 796.09,433.44 1002.1,451.1 344.95,29.57 363.64,-67.06 564,-175.77l535.63 -205.01c103.2,-33.11 185.59,-48.07 252.22,-118.1 97.91,-102.9 57.02,-122.78 185.77,-184.56 -16.09,-69.06 -29.81,-114.3 -56.98,-170.91 112.87,-9.39 130.08,-40.09 142.13,-144.68 32.07,-278.34 -84.49,-492.85 -86.34,-794.17 -2.55,-416.65 -95,-609.73 -255.49,-969.42 -132.91,-297.89 -300.05,-485.83 -519.57,-705.32l-626.7 -598.2c-210.4,-210.75 -410.92,-402.16 -591.27,-633.63 -263.5,-338.2 -511.37,-700.01 -818.24,-1004.87l-485.37 -426.19c-426.63,-422.13 -467.34,-516.55 -950.34,-901.25l-476.28 -435.27c-128.49,-102.51 -208.2,-185.94 -342.19,-284.5 -139.45,-102.57 -184.62,-214.72 -292.28,-305.93l-331.38 -295.31c-499.31,-441.2 -482.65,-294.7 -953.47,-869.63 -320.38,-391.23 -654.05,-541.18 -983.93,-867.67 -106.64,-105.55 -192.07,-193.18 -298.54,-299.66 -234.34,-234.35 -865.94,-692.53 -989.9,-861.7 374.88,8.35 1199.34,336.7 1635.36,415.8 255.7,46.4 361.36,38.67 529.58,-73.97 -7.53,-337.88 -344.58,-456.74 -533.32,-663.09 -60.31,-65.94 -110.71,-168.28 -171.11,-227.69 -110.79,-108.99 -161.09,-33.27 -236.63,-162.17 -160.18,-273.32 28.26,-355.25 -617.97,-977.24l-613.03 -583.4c-355.37,-355.63 -338.51,-264.32 -480.13,-716.28 -185.38,-591.65 -894.37,-795.58 -1003.2,-1019.3l-138.51 -260.29c-296.8,-432.32 -702.3,-587.09 -1042.38,-951.65 -120.81,-129.5 -215.57,-332.54 -319.31,-478.29 -58.58,-82.31 -111.66,-122.85 -183.31,-215.5 -288.33,-372.79 -701.93,-667.03 -1070.7,-951.81 -512.03,-395.41 -464.78,-624.44 -718.33,-876.89l-571.69 -624.72c-299.18,-357.91 -1116.57,-1109.11 -1448.08,-1372.04 -153.08,-121.42 -291.14,-226.2 -443.69,-353.92 -76.23,-63.82 -127.7,-129.01 -200.1,-198.7 -392.9,-378.22 -792.96,-568.18 -1156.04,-866.46 -392.16,-322.17 -959.28,-738.38 -1392.06,-1000.77 -212.29,-128.7 -322.81,-143.1 -500.6,-325.49 -276.88,-284.05 -868.05,-566.37 -1241.11,-752.91l-541.14 -256.46c-243.95,-136.55 -533.01,-268.84 -708.31,-488.11 -74.45,-93.13 -79.46,-159.62 -141.51,-257.29 -153.68,-241.9 -390.69,-411.42 -587.84,-608.56 -554.67,-554.67 -1108.62,-1829.44 -1467.94,-2548.59 -92.75,-185.62 -192.06,-327.98 -295.11,-502.51 -295.63,-500.71 -647.74,-958.82 -1069.81,-1351.5 -530.48,-493.55 -1484.94,-883.49 -2242.83,-947.61 -516.85,-43.72 -1036.17,-40.45 -1489.75,50.16 -285.92,57.11 -350.53,116.39 -555.82,241.78 -328.01,200.37 -647.69,141.37 -1536.1,885.21 -708.1,592.87 -426.8,676.21 -1484.04,937.28 -447.35,110.46 -1016.8,305.41 -1352.92,641.58 -293.87,293.92 187.54,206.88 751.71,261.7 640.15,62.2 1483.56,139.59 2081.08,311.74 503.79,145.14 703.58,632.75 984.34,1009.68 192.16,257.99 388.07,393.67 513.33,711.57l232 565.61c254.41,666.68 260.34,1393.07 260.12,2132.71 -0.51,1747.37 428.86,3361.42 1144.7,4865.86 289.87,609.2 653.64,1197.94 1056.84,1734.79 235.91,314.11 462.52,607.14 739.64,884.06 139.9,139.8 259.58,258.43 398.74,398.87 136.92,138.16 276,243.92 429.08,368.53 292.56,238.13 1095.72,791.57 1427.48,993.84 171.94,104.82 328.68,208.28 500.57,297.04 520.24,268.62 1021.92,615.05 1538.03,883.28 690.5,358.87 1487.05,624.58 2160.26,1030.17 160.71,96.82 331.26,207.11 422.71,374.9 252.3,462.94 -304.82,829 -510.36,1037.1l-627.85 568.57c-239.85,205.27 -983.73,748.02 -1273.96,743.87 -167.85,-2.4 -308.6,-236.07 -463.61,-328.36 -590.7,-351.69 -1167.32,-729.8 -1786.31,-1033.81l-477.45 -320.16c-146.56,-122.59 -380.92,-168.05 -520.07,-277.53l-476.39 -321.22c-86.09,-61.65 -140.67,-110.62 -214.01,-184.8 -156.87,-158.68 -234.53,-249.83 -367.51,-430.1 -231.14,-313.33 -435.33,-634.58 -714.61,-909.1 -470.32,-462.29 -839.16,-1040.4 -1206.78,-1584.86 -202.01,-299.2 -191.01,-319.61 -438.51,-615.47l-78.72 -92.2c-190.09,-206.7 -419.47,-383.25 -584.51,-611.91 -64.65,-89.57 -95.28,-156.74 -213.57,-170.42l-193.07 -15.37c-119.19,-4.51 -232.63,-99.63 -354.44,-164.08 0,293.36 122.74,162.09 142.43,398.81 -189.25,-217.73 -404.62,-676.81 -712.15,-683.67 0,112.47 8.95,115.59 28.49,199.41 -218.72,-104.95 -452.29,-316.92 -712.16,-256.37 0,536.46 391,646.64 398.81,997.01 -85.82,22.92 -62.55,-0.36 -85.46,85.46 119.36,79.93 360.99,274.83 405.81,417.29 45.93,146 -66.37,62.93 98.32,274.83 248.84,320.15 524.41,628.88 729.9,979.42l352.48 502.11c201.05,235.69 328.85,528.94 516.62,765.25 67.37,84.79 140.83,134.7 208.52,218.76l398.76 455.83c42.21,52.58 40.32,54.76 89.9,109.5 64.73,71.45 67.19,36.07 76.76,151.12 -350.67,0 -229.4,36.9 -656.67,1.5 -232.2,-19.24 -493.97,22.58 -688.84,-23.32 -392.27,-92.39 -771.96,-164.02 -1173.61,-250.69 -586.8,-126.64 -1033.88,-811.28 -1457.83,-485.52 -356.61,274.01 -151.07,103.02 -495.36,74.37 41.59,178.49 196.02,237.64 284.86,370.32l-129.4 -2.91c-2.16,0.22 -9,1.02 -13.03,2.91 29.88,128.25 84.85,170.6 187.29,240.01l248.35 178.94c103,64.73 58.7,10.42 146.26,53.14 136.96,66.82 -67.26,29.14 424.69,258.98 529.52,247.4 775.28,399.44 536.34,1011.25 -80.24,205.45 -52.57,120.99 -182.18,245.12 -238.92,228.81 -254.34,703.6 -237.07,1040.36 28.69,559.26 -660.06,405.89 -1109.35,632.73 -263.08,132.83 -587.11,286.26 -759.09,522.79 -198.76,273.35 -460.29,414.28 -569.68,769.17 -106.49,345.47 20.06,279.68 -229.48,653.59 -491.16,735.96 -229.78,645.18 -398.41,1339.24 -75.52,310.83 -302.78,1169.85 -137.15,1515.04 191.68,-51.19 285.76,-330.01 386.14,-496.92 223.43,-371.46 559.95,-605.62 860.13,-906.02 77.55,-77.61 138.19,-134.09 214.22,-213.07 85.75,-89.09 118.69,-150.24 213.19,-242.59l402.07 -481c261.2,-327.39 462.34,-722.95 715.58,-1050.55 150.47,-194.65 246.65,-471.27 399.11,-483.95l242.41 669.14c146.6,291.46 272.42,609.81 457.66,881.19 114.88,168.29 223.71,262.29 341.89,427.22l604.78 904.99c109.87,181.83 150.84,317.52 228.86,511.77 66.07,164.47 142.27,405.84 346.3,422.82l144.56 -826.25c-5.95,-542.76 -139.91,-563.38 -258.51,-740.48 287.04,-76.65 -135.17,-676.16 -228.26,-911.18 -326.63,-824.71 -261.49,-635.37 -734.59,-1344.89l-553.06 -842.77c-113.07,-165.89 -164.77,-276.26 -164.77,-547.37 127.54,-34.06 132.68,-95.2 180,-218.8 109.64,-286.43 166.12,-635.03 294.73,-901.69 336.91,-698.57 54.26,-862.81 757.03,-709.48 306.45,66.86 1042.47,104.46 1445.93,149.29 1010.04,112.26 941.92,244.08 1601.56,819.75 291.6,254.48 626.75,438.35 957,638.22 451.15,273.04 1113.39,792.52 1457.75,963.56 136.56,67.83 431.55,172.92 501.02,296.58 119.33,212.39 -40.27,511.47 239.84,586.26 0,-163.5 -28.49,-216.24 -28.49,-398.81 110.6,74.06 119.94,51.2 155.13,215.18 65.02,302.93 162.45,532.26 500.05,610.91 -37.74,-162 -79.4,-98.52 -113.94,-227.89z"/>
 </g>
</svg>
