<?xml version="1.0" encoding="UTF-8"?>
<svg width="752pt" height="752pt" version="1.1" viewBox="0 0 752 752" xmlns="http://www.w3.org/2000/svg">
 <path fill="#ffffff" d="m537.02 162.89h-322.04c-28.891 0-52.094 21.785-52.094 48.777v244.84c0 26.992 23.207 48.777 52.094 48.777h34.098v72.457c0 4.2617 2.8398 8.5234 7.1055 10.418 1.8945 0.94531 3.3164 0.94531 5.2109 0.94531 2.8398 0 5.6836-0.94531 8.0508-2.3672l107.5-81.457 160.07 0.003906c28.887 0 52.094-21.785 52.094-48.777v-244.84c0-26.992-23.207-48.777-52.094-48.777zm-174.75 239.16h-104.66v-138.29h101.35v24.625l-72.934 0.003906v29.363h67.25v24.152l-67.25-0.003906v35.52h76.719l0.003907 24.625zm134.5 0h-28.887l-56.359-98.031v98.031h-26.992v-138.29h30.309l54.934 96.609v-96.609h26.992z"/>
</svg>
