<?xml version="1.0" encoding="UTF-8"?>
<svg width="752pt" height="752pt" version="1.1" viewBox="0 0 752 752" xmlns="http://www.w3.org/2000/svg">
 <g>
  <path fill="#ffffff" d="m325.8 290.29c-2.8398-1.4219-7.5781-2.3672-13.262-2.3672h-31.73v36.938h31.258c6.1562 0 10.891-0.94531 13.734-2.3672 5.6836-2.8398 8.0508-8.0508 8.0508-15.629-0.47266-8.0508-2.8398-13.734-8.0508-16.574z"/>
  <path fill="#ffffff" d="m537.02 162.89h-322.04c-28.891 0-52.094 21.785-52.094 48.777v244.84c0 26.992 23.207 48.777 52.094 48.777h34.098v72.457c0 4.2617 2.8398 8.5234 7.1055 10.418 1.8945 0.94531 3.3164 0.94531 5.2109 0.94531 2.8398 0 5.6836-0.94531 8.0508-2.3672l107.5-81.457 160.07 0.003906c28.887 0 52.094-21.785 52.094-48.777v-244.84c0-26.992-23.207-48.777-52.094-48.777zm-172.38 239.16h-31.73c-0.94531-2.8398-1.4219-5.6836-1.8945-7.5781-0.94531-3.7891-0.94531-8.0508-1.4219-11.84v-12.785c0-8.9961-1.4219-14.68-4.7344-17.523-2.8398-2.8398-8.5234-4.2617-16.574-4.2617h-28.414v53.988h-28.414l-0.003906-138.29h66.301c9.4727 0 16.574 1.4219 21.785 3.7891 5.2109 2.3672 9.4727 5.2109 12.785 9.4727 2.8398 3.3164 5.2109 7.5781 7.1055 11.84s2.3672 8.9961 2.3672 14.68c0 6.6289-1.8945 13.262-4.7344 19.418-3.3164 6.1562-8.9961 10.891-16.574 13.262 6.1562 2.3672 10.891 6.1562 13.734 10.891 2.8398 4.7344 3.7891 11.84 3.7891 21.785v9.4727c0 6.1562 0.47266 10.418 0.94531 12.785 0.94531 3.7891 2.3672 6.1562 5.2109 8.0508l-0.003906 2.8398zm136.39-53.512c0 14.68-2.3672 26.047-6.6289 34.098-8.5234 15.156-24.625 22.73-48.777 22.73-23.68 0-40.254-7.5781-48.777-22.73-4.7344-8.0508-6.6289-19.418-6.6289-34.098l-0.007813-84.773h29.363v84.77c0 9.4727 0.94531 16.574 3.3164 20.836 3.3164 7.5781 10.891 11.84 22.73 11.84 11.84 0 19.418-3.7891 22.73-11.84 2.3672-4.2617 3.3164-11.367 3.3164-20.836v-84.77h29.363z"/>
 </g>
</svg>
